<?xml version="1.0" encoding="UTF-8" standalone="no"?>
<!-- Created with Inkscape (http://www.inkscape.org/) -->

<svg
   xmlns:dc="http://purl.org/dc/elements/1.1/"
   xmlns:cc="http://creativecommons.org/ns#"
   xmlns:rdf="http://www.w3.org/1999/02/22-rdf-syntax-ns#"
   xmlns:svg="http://www.w3.org/2000/svg"
   xmlns="http://www.w3.org/2000/svg"
   version="1.1"
   width="111.92266"
   height="120"
   id="svg5500">
  <defs
     id="defs5502" />
  <metadata
     id="metadata5505">
    <rdf:RDF>
      <cc:Work
         rdf:about="">
        <dc:format>image/svg+xml</dc:format>
        <dc:type
           rdf:resource="http://purl.org/dc/dcmitype/StillImage" />
        <dc:title></dc:title>
      </cc:Work>
    </rdf:RDF>
  </metadata>
  <g
     transform="translate(-331.34412,-449.82172)"
     id="layer1">
    <path
       d="m 370.69965,449.82172 c -3.5254,0 -6.35875,2.83335 -6.35875,6.35875 0,3.52541 2.83335,6.40172 6.35875,6.40172 1.16108,0 2.24135,-0.31756 3.17938,-0.85929 l 24.44683,27.06767 c -0.53063,0.93089 -0.81633,1.98822 -0.81633,3.13641 0,1.16839 0.3112,2.28031 0.85929,3.22234 l -24.40386,27.06767 c -0.95685,-0.57235 -2.06927,-0.90225 -3.26531,-0.90225 -1.13898,0 -2.16768,0.33655 -3.09345,0.85929 l -24.3609,-27.02471 c 0.54608,-0.94076 0.85929,-2.05624 0.85929,-3.22234 0,-3.5254 -2.87631,-6.35875 -6.40172,-6.35875 -3.5254,0 -6.35875,2.83335 -6.35875,6.35875 0,3.52541 2.83335,6.40172 6.35875,6.40172 1.16108,0 2.24135,-0.31756 3.17938,-0.85929 l 24.3609,26.98174 c -0.56387,0.95175 -0.90225,2.0359 -0.90225,3.22234 0,3.52541 2.83335,6.40172 6.35875,6.40172 1.16108,0 2.24135,-0.31755 3.17938,-0.85929 l 24.44683,27.06767 c -0.53063,0.93091 -0.81633,1.98823 -0.81633,3.13641 0,3.5254 2.83335,6.40172 6.35876,6.40172 3.5254,0 6.40172,-2.87632 6.40172,-6.40172 0,-1.18644 -0.33839,-2.27059 -0.90226,-3.22234 l 24.31794,-26.98174 c 0.94076,0.54608 2.01328,0.85929 3.17938,0.85929 3.5254,0 6.40171,-2.87631 6.40171,-6.40172 0,-3.5254 -2.87631,-6.35875 -6.40171,-6.35875 -3.52541,0 -6.35876,2.83335 -6.35876,6.35875 0,1.1684 0.3112,2.28033 0.85929,3.22234 l -24.3609,27.02471 c -0.93036,-0.52978 -1.98922,-0.85929 -3.13641,-0.85929 -1.18644,0 -2.27061,0.33838 -3.22234,0.90225 l -24.40387,-27.06767 c 0.54608,-0.94076 0.85929,-2.05625 0.85929,-3.22234 0,-1.13898 -0.33655,-2.16768 -0.85929,-3.09345 l 24.44683,-27.11063 c 0.94077,0.54608 2.01327,0.85929 3.17938,0.85929 3.5254,0 6.40172,-2.87631 6.40172,-6.40172 0,-1.18644 -0.33839,-2.2706 -0.90226,-3.22234 l 24.31794,-26.98174 c 0.94076,0.54608 2.01328,0.85929 3.17938,0.85929 3.5254,0 6.40171,-2.87631 6.40171,-6.40172 0,-3.5254 -2.87631,-6.35875 -6.40171,-6.35875 -3.52541,0 -6.35876,2.83335 -6.35876,6.35875 0,1.16839 0.3112,2.28032 0.85929,3.22235 l -24.3609,27.0247 c -0.93036,-0.52978 -1.98922,-0.85929 -3.13641,-0.85929 -1.18644,0 -2.27061,0.33838 -3.22234,0.90225 l -24.40387,-27.06766 c 0.54608,-0.94077 0.85929,-2.05625 0.85929,-3.22235 0,-3.5254 -2.87632,-6.35875 -6.40172,-6.35875 z"
       id="path3178"
       style="font-size:40px;font-style:normal;font-variant:normal;font-weight:normal;font-stretch:normal;text-indent:0;text-align:start;text-decoration:none;line-height:125%;letter-spacing:0px;word-spacing:0px;text-transform:none;direction:ltr;block-progression:tb;writing-mode:lr-tb;text-anchor:start;baseline-shift:baseline;color:#000000;fill:#7e7e7e;fill-opacity:1;fill-rule:nonzero;stroke:none;stroke-width:2.4000001;marker:none;visibility:visible;display:inline;overflow:visible;enable-background:accumulate;font-family:OCRATTRegular;-inkscape-font-specification:OCRATTRegular" />
  </g>
</svg>
