<svg xmlns="http://www.w3.org/2000/svg" width="182" height="36"><path d="M81.881 12.988c.248 0 .462.09.64.268a.892.892 0 01.269.656v13.543c0 .248-.09.461-.268.64a.874.874 0 01-.64.268h-.03a.892.892 0 01-.656-.268.874.874 0 01-.268-.64V13.912a.89.89 0 01.268-.656.892.892 0 01.655-.268zm-.015-3.725c-.337 0-.62-.114-.849-.343a1.153 1.153 0 01-.343-.849c0-.328.115-.606.343-.834.229-.229.512-.343.85-.343.327 0 .605.114.834.343.238.238.357.516.357.834 0 .328-.119.611-.357.85a1.135 1.135 0 01-.835.342zm58.805 3.77a7.605 7.605 0 00-2.956.525c-1.982.755-3.398 2.112-4.267 4.052-.868 1.94-.923 3.882-.167 5.864.756 1.982 2.089 3.422 4.029 4.291a7.635 7.635 0 003.027.667h4.553c.249 0 .465-.09.644-.262a.827.827 0 00.262-.62v-.071a.827.827 0 00-.262-.62.902.902 0 00-.644-.262h-4.553a5.716 5.716 0 01-2.288-.5c-1.732-.776-2.846-2.259-3.385-4.459 1.294 0 3.47-.012 6.555-.023 2.485-.009 4.483 0 6.008 0a.943.943 0 00.643-.286.849.849 0 00.262-.644 7.552 7.552 0 00-1.215-4.1 7.478 7.478 0 00-3.314-2.86 7.677 7.677 0 00-2.932-.692zm-.62 1.907c.934-.07 1.848.114 2.766.525 1.65.738 2.787 2.15 3.385 4.267l-11.538.047c.185-.657.335-1.12.453-1.383.657-1.468 1.742-2.495 3.242-3.075a6 6 0 011.692-.381zm-34.167-1.907a7.605 7.605 0 00-2.956.525c-1.981.755-3.398 2.112-4.267 4.052-.868 1.94-.923 3.882-.167 5.864.757 1.982 2.09 3.422 4.03 4.291a7.635 7.635 0 003.027.667h4.553c.248 0 .464-.09.643-.262a.827.827 0 00.262-.62v-.071a.827.827 0 00-.262-.62.902.902 0 00-.643-.262h-4.553a5.716 5.716 0 01-2.289-.5c-1.731-.776-2.846-2.259-3.385-4.459 1.294 0 3.47-.012 6.556-.023 2.485-.009 4.482 0 6.007 0a.943.943 0 00.643-.286.849.849 0 00.263-.644 7.552 7.552 0 00-1.216-4.1 7.478 7.478 0 00-3.314-2.86 7.677 7.677 0 00-2.932-.692zm-.62 1.907c.934-.07 1.848.114 2.766.525 1.65.738 2.787 2.15 3.385 4.267l-11.538.047c.185-.657.335-1.12.453-1.383.658-1.468 1.742-2.495 3.242-3.075a6 6 0 011.693-.381zm-43.968-1.942c.258 0 .477.089.656.268a.92.92 0 01.253.655v.03a.892.892 0 01-.909.909h-.85a3.675 3.675 0 00-2.696 1.117c-.735.745-1.107 1.644-1.117 2.697v8.79c0 .249-.09.462-.268.64a.874.874 0 01-.641.27h-.045a.874.874 0 01-.64-.27.874.874 0 01-.269-.64v-8.79c.02-1.58.571-2.92 1.654-4.023 1.103-1.102 2.444-1.654 4.023-1.654zm9.686 12.976c.141 0 .292-.203.452-.61l.07-.18 4.729-11.62c.15-.378.414-.566.79-.566h.028c.31 0 .55.134.72.402.17.278.193.566.07.864l-5.25 12.947c-.32.775-.856 1.162-1.609 1.162s-1.29-.387-1.609-1.162l-5.25-12.947a.912.912 0 01.07-.864.805.805 0 01.72-.402h.028c.376 0 .64.188.79.566l4.729 11.62.07.18c.16.407.31.61.452.61zM92.9 12.998c.795 0 1.57.124 2.324.372.428.13.641.417.641.864v.075a.853.853 0 01-.372.73.871.871 0 01-.82.149 5.316 5.316 0 00-1.773-.298c-1.609 0-2.984.571-4.127 1.713-1.132 1.143-1.698 2.518-1.698 4.127 0 1.6.566 2.97 1.698 4.112 1.143 1.143 2.518 1.714 4.127 1.714.616 0 1.207-.09 1.773-.268.298-.1.571-.06.82.119a.866.866 0 01.372.745c0 .437-.213.725-.64.864a7.673 7.673 0 01-2.325.357c-2.125 0-3.938-.75-5.438-2.25-1.5-1.5-2.25-3.312-2.25-5.437 0-2.126.75-3.939 2.25-5.439s3.313-2.25 5.438-2.25zm30.424 1.892c-1.61 0-2.985.57-4.127 1.713-1.133 1.142-1.699 2.518-1.699 4.127 0 1.6.566 2.97 1.699 4.112 1.142 1.142 2.518 1.713 4.127 1.713 1.619 0 2.99-.57 4.112-1.713 1.142-1.142 1.713-2.513 1.713-4.112 0-1.61-.571-2.985-1.713-4.127-1.123-1.142-2.493-1.713-4.112-1.713zm-6.735-11.052a.892.892 0 01.909.909V15.59c1.937-1.728 3.879-2.592 5.826-2.592 2.125 0 3.938.75 5.438 2.25 1.5 1.5 2.25 3.312 2.25 5.437 0 2.126-.75 3.939-2.25 5.438-1.5 1.5-3.313 2.25-5.438 2.25-2.126 0-3.934-.745-5.424-2.235-1.5-1.5-2.254-3.302-2.264-5.408V4.747a.892.892 0 01.909-.91zm40.734 9.16c.258 0 .477.089.655.268a.92.92 0 01.254.655v.03a.892.892 0 01-.909.909h-.85a3.675 3.675 0 00-2.696 1.117c-.735.745-1.108 1.644-1.118 2.697v8.79a.87.87 0 01-.268.64.874.874 0 01-.64.27h-.045a.874.874 0 01-.64-.27.874.874 0 01-.269-.64v-8.79c.02-1.58.571-2.92 1.654-4.023 1.102-1.102 2.443-1.654 4.023-1.654zm8.673 0c.258 0 .477.089.655.268a.92.92 0 01.254.655v.03a.892.892 0 01-.909.909h-.85a3.675 3.675 0 00-2.696 1.117c-.735.745-1.107 1.644-1.117 2.697v8.79a.87.87 0 01-.269.64.874.874 0 01-.64.27h-.045a.874.874 0 01-.64-.27.874.874 0 01-.269-.64v-8.79c.02-1.58.571-2.92 1.654-4.023 1.103-1.102 2.443-1.654 4.023-1.654zm3.836-.002a.875.875 0 00-.644.263.914.914 0 00-.262.667v7.82c0 1.747.604 3.235 1.835 4.457 1.232 1.231 2.734 1.835 4.482 1.835 1.38 0 2.854-.578 4.434-1.74v3.409c-.001.144-.011.29-.024.429v.024a4.355 4.355 0 01-.167.834 3.746 3.746 0 01-.143.405 4.058 4.058 0 01-.19.382c-.004.006.002.018 0 .024-.138.245-.31.467-.501.69-.004.006.004.02 0 .025-.095.11-.203.205-.31.31-.102.1-.204.197-.31.286-.008.007-.015.016-.024.023-.047.04-.095.083-.143.12-.067.052-.145.095-.214.143-.095.064-.189.135-.286.19-.025.015-.047.035-.072.048-.06.032-.13.043-.19.072-.065.031-.126.067-.191.095-.122.052-.233.103-.358.143-.008.002-.016-.002-.024 0-.08.025-.156.051-.238.071-.327.08-.672.118-1.025.12h-5.364c-.28 0-.513.083-.715.262-.202.179-.31.395-.31.643v.048c0 .248.108.465.31.644s.434.262.715.262h5.364a6.27 6.27 0 001.025-.095v.023c.057-.01.11-.035.167-.047.1-.02.188-.047.286-.072.088-.023.175-.044.262-.071.055-.017.112-.03.167-.048.126-.044.258-.09.381-.143.066-.028.126-.065.191-.095a5.91 5.91 0 00.334-.167c.07-.038.145-.078.214-.12.177-.105.354-.23.525-.357a7.38 7.38 0 00.763-.644 7.45 7.45 0 00.858-.977c.004-.005-.004-.018 0-.024.37-.522.627-1.06.81-1.644.06-.187.127-.38.167-.573.002-.007-.002-.016 0-.023.04-.2.075-.39.095-.596a6.21 6.21 0 00.024-.62V13.926a.914.914 0 00-.262-.667.876.876 0 00-.644-.263h-.024a.914.914 0 00-.667.263.914.914 0 00-.262.667v7.819c0 1.242-.437 2.292-1.311 3.147-.855.874-1.891 1.31-3.123 1.31-1.232 0-2.297-.436-3.17-1.31-.865-.874-1.288-1.925-1.288-3.147v-7.819a.935.935 0 00-.286-.667.823.823 0 00-.62-.263h-.047zm-124.162.037a7.607 7.607 0 00-2.957.525c-1.982.755-3.398 2.112-4.267 4.052-.868 1.94-.923 3.882-.167 5.864.756 1.982 2.089 3.422 4.029 4.291a7.635 7.635 0 003.027.667h4.553c.249 0 .465-.09.644-.262a.827.827 0 00.262-.62v-.071a.827.827 0 00-.262-.62.902.902 0 00-.644-.262h-4.553a5.716 5.716 0 01-2.288-.5c-1.732-.776-2.847-2.259-3.385-4.459 1.294 0 3.47-.012 6.555-.023 2.485-.009 4.483 0 6.008 0a.943.943 0 00.643-.286.849.849 0 00.262-.644 7.552 7.552 0 00-1.215-4.1 7.478 7.478 0 00-3.314-2.86 7.677 7.677 0 00-2.932-.692zm-.62 1.907c.933-.07 1.847.114 2.764.525 1.65.738 2.788 2.15 3.385 4.267l-11.537.047c.185-.657.335-1.12.453-1.383.657-1.468 1.742-2.495 3.242-3.075a6 6 0 011.692-.381z" style="line-height:125%;-inkscape-font-specification:'Typo Round Light Demo Light'" font-weight="300" font-size="40" font-family="Typo Round Light Demo" letter-spacing="0" word-spacing="0" fill="#fff"/><g font-size="40" letter-spacing="0" word-spacing="0"><g style="line-height:125%;-inkscape-font-specification:OCRATTRegular" font-weight="400" font-family="OCRATTRegular"><path d="M8.793.919l8.793 8.793v16.414l-8.793 8.793m0 0v-34" style="line-height:125%;-inkscape-font-specification:OCRATTRegular" fill="#026e00"/><path d="M8.793.919v34m0 0L0 26.126V9.712L8.793.919" style="line-height:125%;-inkscape-font-specification:OCRATTRegular" fill="#04b000"/></g><path d="M10.137 13.175c-.533 0-.987.188-1.363.564A1.882 1.882 0 008.21 15.1c0 .752.353 1.316 1.058 1.692.203.102.904.313 2.102.634.822.235 1.413.529 1.774.881.509.478.763 1.186.763 2.126s-.329 1.742-.986 2.408a3.301 3.301 0 01-2.408.987H7.447a.69.69 0 01-.505-.212.69.69 0 01-.212-.505v-.023a.7.7 0 01.212-.517.69.69 0 01.505-.211h3.183c.533 0 .987-.188 1.363-.564a1.86 1.86 0 00.563-1.363c0-.728-.356-1.265-1.068-1.609-.15-.07-.846-.282-2.091-.634-.807-.243-1.398-.54-1.774-.893-.509-.509-.763-1.241-.763-2.197 0-.94.328-1.738.986-2.396a3.281 3.281 0 012.408-.998h2.914c.203 0 .376.07.517.211.14.141.211.314.211.517v.024a.69.69 0 01-.211.505.703.703 0 01-.517.211z" style="line-height:125%;-inkscape-font-specification:'Typo Round Light Demo Light'" font-weight="300" font-family="Typo Round Light Demo" fill="none"/></g><path d="M28.812 5.945c-1.256 0-2.33.445-3.221 1.337-.892.89-1.337 1.965-1.337 3.221 0 1.554.702 2.737 2.108 3.548.537.308 1.993.805 4.37 1.49 1.794.538 3.085 1.16 3.873 1.869 1.12 1.017 1.68 2.485 1.68 4.404 0 1.874-.663 3.468-1.988 4.782-1.314 1.314-2.902 1.97-4.765 1.97h-6.53c-.285 0-.53-.102-.736-.308a1.006 1.006 0 01-.309-.737v-.103c0-.285.103-.53.309-.737.206-.205.451-.308.737-.308h6.7c1.246 0 2.32-.446 3.223-1.337.89-.891 1.336-1.965 1.336-3.222 0-1.53-.702-2.719-2.108-3.564-.571-.343-2.022-.88-4.353-1.611-1.816-.594-3.113-1.24-3.89-1.937-1.12-1.005-1.68-2.405-1.68-4.199 0-1.873.658-3.467 1.971-4.781 1.314-1.314 2.908-1.97 4.782-1.97h4.61a1.026 1.026 0 011.045 1.045v.102a1.026 1.026 0 01-1.045 1.045z" style="line-height:125%;-inkscape-font-specification:'Typo Round Light Demo Light'" font-weight="300" font-size="40" font-family="Typo Round Light Demo" letter-spacing="0" word-spacing="0" fill="#fff"/></svg>