<svg xmlns="http://www.w3.org/2000/svg" width="372.155" height="120"><g font-size="40" letter-spacing="0" word-spacing="0"><g font-weight="400" font-family="OCRATTRegular"><g style="line-height:125%;-inkscape-font-specification:OCRATTRegular"><path d="M216 0l9.97 9.97v18.61L216 38.55m0 0V0" style="line-height:125%;-inkscape-font-specification:OCRATTRegular" fill="#026e00"/><path d="M216 0v38.55m0 0l-9.97-9.97V9.97L216 0" style="line-height:125%;-inkscape-font-specification:OCRATTRegular" fill="#04b000"/></g><g style="line-height:125%;-inkscape-font-specification:OCRATTRegular"><path d="M256.281 27.592l-13.619-3.65-16.117 9.305-3.65 13.62m0 0l33.386-19.275" style="line-height:125%;-inkscape-font-specification:OCRATTRegular" fill="#026e00"/><path d="M256.281 27.592l-33.385 19.274m0 0l13.619 3.65 16.117-9.305 3.65-13.62" style="line-height:125%;-inkscape-font-specification:OCRATTRegular" fill="#04b000"/></g><g style="line-height:125%;-inkscape-font-specification:OCRATTRegular"><path d="M175.719 27.592l13.619-3.65 16.117 9.305 3.65 13.62m0 0l-33.386-19.275" style="line-height:125%;-inkscape-font-specification:OCRATTRegular" fill="#026e00"/><path d="M175.719 27.592l33.385 19.274m0 0l-13.619 3.65-16.117-9.305-3.65-13.62" style="line-height:125%;-inkscape-font-specification:OCRATTRegular" fill="#04b000"/></g></g><path d="M132.577 64.677c.597 0 1.11.215 1.54.645.43.43.645.955.645 1.576v32.558c0 .597-.215 1.11-.645 1.54-.43.43-.943.645-1.54.645h-.072c-.62 0-1.146-.215-1.576-.645a2.102 2.102 0 0 1-.644-1.54V66.898c0-.62.214-1.146.644-1.576.43-.43.955-.645 1.576-.645zm-.036-8.954c-.812 0-1.492-.275-2.041-.824-.55-.55-.824-1.23-.824-2.042 0-.788.274-1.456.824-2.005.549-.55 1.23-.824 2.041-.824a2.73 2.73 0 0 1 2.006.824c.573.573.86 1.241.86 2.005 0 .788-.287 1.469-.86 2.042a2.73 2.73 0 0 1-2.006.824zm141.371 9.063c-2.357-.068-4.724.352-7.106 1.26-4.764 1.818-8.17 5.08-10.258 9.743-2.088 4.664-2.219 9.334-.402 14.098 1.818 4.764 5.022 8.227 9.686 10.316a18.354 18.354 0 0 0 7.278 1.604h10.946c.597 0 1.117-.216 1.547-.63.43-.414.63-.915.63-1.49v-.173c0-.575-.2-1.076-.63-1.49-.43-.414-.95-.63-1.547-.63H273.11a13.74 13.74 0 0 1-5.502-1.204c-4.162-1.863-6.843-5.427-8.138-10.716 3.11 0 8.344-.03 15.76-.057 5.974-.02 10.776 0 14.442 0 .608-.018 1.127-.274 1.547-.688.43-.435.645-.938.63-1.547-.024-3.569-.998-6.85-2.922-9.857-1.97-3.08-4.61-5.375-7.966-6.877-2.332-1.044-4.692-1.595-7.049-1.662zm-1.49 4.585c2.245-.17 4.441.272 6.648 1.26 3.966 1.776 6.702 5.168 8.138 10.259l-27.738.113c.446-1.58.806-2.692 1.09-3.324 1.58-3.53 4.187-5.998 7.793-7.392 1.36-.52 2.722-.815 4.07-.917zm-82.14-4.585c-2.357-.068-4.724.352-7.106 1.26-4.764 1.818-8.17 5.08-10.258 9.743-2.088 4.664-2.219 9.334-.402 14.098 1.818 4.764 5.022 8.227 9.686 10.316a18.354 18.354 0 0 0 7.278 1.604h10.946c.597 0 1.117-.216 1.547-.63.43-.414.63-.915.63-1.49v-.173c0-.575-.2-1.076-.63-1.49-.43-.414-.95-.63-1.547-.63H189.48a13.74 13.74 0 0 1-5.502-1.204c-4.162-1.863-6.843-5.427-8.138-10.716 3.11 0 8.344-.03 15.76-.057 5.974-.02 10.776 0 14.442 0 .608-.018 1.127-.274 1.547-.688.43-.435.645-.938.63-1.547-.024-3.569-.998-6.85-2.922-9.857-1.97-3.08-4.61-5.375-7.966-6.877-2.332-1.044-4.692-1.595-7.049-1.662zm-1.49 4.585c2.245-.17 4.441.272 6.648 1.26 3.966 1.776 6.702 5.168 8.138 10.259l-27.738.113c.446-1.58.806-2.692 1.09-3.324 1.58-3.53 4.187-5.998 7.793-7.392 1.36-.52 2.722-.815 4.07-.917zM83.089 64.7c.62 0 1.146.215 1.576.645.406.43.609.955.609 1.576v.072c0 .62-.203 1.134-.61 1.54a2.14 2.14 0 0 1-1.575.645h-2.042c-2.53 0-4.692.895-6.483 2.686-1.767 1.79-2.662 3.952-2.686 6.483v21.132c0 .597-.215 1.11-.645 1.54-.43.43-.943.645-1.54.645h-.107c-.597 0-1.11-.215-1.54-.644a2.102 2.102 0 0 1-.645-1.54V78.346c.047-3.797 1.373-7.02 3.975-9.67 2.65-2.651 5.875-3.977 9.671-3.977zm23.286 31.198c.339 0 .7-.49 1.085-1.469l.17-.43 11.368-27.937c.362-.908.995-1.362 1.9-1.362h.068c.746 0 1.323.323 1.73.967.408.67.464 1.362.17 2.078L110.243 98.87c-.77 1.862-2.059 2.793-3.868 2.793-1.81 0-3.1-.93-3.869-2.793L89.883 67.745c-.294-.716-.237-1.409.17-2.078.407-.644.984-.967 1.73-.967h.068c.905 0 1.539.454 1.9 1.362l11.368 27.937.17.43c.384.98.746 1.469 1.086 1.469zM159.068 64.7c1.91 0 3.772.299 5.587.896 1.027.31 1.54 1.003 1.54 2.077v.18c0 .74-.298 1.325-.895 1.755-.597.454-1.254.573-1.97.358a12.78 12.78 0 0 0-4.262-.716c-3.869 0-7.176 1.373-9.922 4.119-2.722 2.746-4.083 6.053-4.083 9.921 0 3.845 1.36 7.14 4.083 9.886 2.746 2.746 6.053 4.12 9.922 4.12 1.48 0 2.9-.216 4.262-.645.716-.24 1.373-.143 1.97.286.597.43.895 1.027.895 1.791 0 1.05-.513 1.743-1.54 2.077-1.815.573-3.677.86-5.587.86-5.11 0-9.468-1.803-13.074-5.408-3.606-3.606-5.408-7.964-5.408-13.074 0-5.11 1.802-9.468 5.408-13.074 3.606-3.605 7.964-5.408 13.074-5.408zm73.139 4.55c-3.868 0-7.175 1.372-9.921 4.118-2.722 2.746-4.083 6.054-4.083 9.922 0 3.844 1.36 7.14 4.083 9.886 2.746 2.746 6.053 4.119 9.921 4.119 3.893 0 7.188-1.373 9.886-4.12 2.746-2.745 4.12-6.04 4.12-9.885 0-3.868-1.374-7.176-4.12-9.922-2.698-2.746-5.993-4.119-9.886-4.119zm-16.19-26.57c.598 0 1.111.203 1.541.609.43.43.645.955.645 1.576v26.068c4.656-4.155 9.324-6.233 14.004-6.233 5.11 0 9.468 1.803 13.074 5.409s5.408 7.964 5.408 13.073c0 5.11-1.802 9.468-5.408 13.074-3.606 3.606-7.964 5.408-13.074 5.408-5.11 0-9.455-1.79-13.037-5.372-3.606-3.606-5.42-7.94-5.444-13.002V44.865a2.14 2.14 0 0 1 2.184-2.186zm97.927 22.02c.62 0 1.146.215 1.576.645.406.43.609.955.609 1.576v.072c0 .62-.203 1.134-.61 1.54-.43.43-.954.645-1.575.645h-2.042c-2.531 0-4.692.895-6.483 2.686-1.767 1.79-2.662 3.952-2.686 6.483v21.132c0 .597-.215 1.11-.645 1.54-.43.43-.943.645-1.54.645h-.108c-.597 0-1.11-.215-1.54-.644a2.102 2.102 0 0 1-.644-1.54V78.346c.047-3.797 1.373-7.02 3.975-9.67 2.65-2.651 5.874-3.977 9.671-3.977zm20.851 0c.62 0 1.146.215 1.576.645.406.43.609.955.609 1.576v.072c0 .62-.203 1.134-.61 1.54-.43.43-.954.645-1.575.645h-2.042c-2.531 0-4.692.895-6.483 2.686-1.767 1.79-2.662 3.952-2.686 6.483v21.132c0 .597-.215 1.11-.645 1.54-.43.43-.943.645-1.54.645h-.108c-.597 0-1.11-.215-1.54-.644a2.102 2.102 0 0 1-.645-1.54V78.346c.048-3.797 1.373-7.02 3.976-9.67 2.65-2.651 5.874-3.977 9.671-3.977zm9.221-.002c-.597 0-1.118.2-1.547.63-.43.43-.63.984-.63 1.605V85.73c0 4.203 1.45 7.78 4.412 10.717 2.96 2.96 6.571 4.413 10.774 4.413 3.319 0 6.863-1.39 10.66-4.184v8.195c-.002.347-.027.696-.058 1.032-.002.018.002.038 0 .057a10.47 10.47 0 0 1-.401 2.006 8.96 8.96 0 0 1-.344.974 9.777 9.777 0 0 1-.458.917c-.008.015.007.043 0 .057-.33.59-.745 1.123-1.204 1.662-.01.011.01.046 0 .057-.227.265-.487.493-.745.745-.244.242-.491.474-.745.688-.02.016-.037.04-.057.057-.114.094-.228.199-.344.287-.162.125-.35.23-.516.344-.228.153-.453.325-.687.458-.06.034-.113.082-.172.115-.143.077-.313.102-.459.171-.154.076-.3.163-.458.23-.291.124-.559.248-.86.344-.018.005-.04-.006-.057 0-.193.06-.377.123-.573.171-.785.193-1.616.283-2.464.287h-12.895c-.675 0-1.233.2-1.72.63-.485.43-.744.95-.744 1.548v.114c0 .597.259 1.118.745 1.548.486.43 1.044.63 1.72.63h12.894a14.971 14.971 0 0 0 2.464-.23v.058c.138-.024.264-.086.401-.115.24-.047.452-.111.688-.171.211-.056.422-.107.63-.172.133-.041.27-.07.401-.115.304-.105.62-.217.917-.344.157-.066.304-.156.459-.229.27-.128.537-.255.802-.401.168-.092.35-.187.516-.287a15.98 15.98 0 0 0 1.26-.86c.625-.462 1.243-.97 1.834-1.547.771-.753 1.482-1.535 2.064-2.35.009-.012-.01-.043 0-.057a13.85 13.85 0 0 0 1.948-3.954c.142-.448.305-.912.401-1.375.004-.019-.004-.04 0-.057.098-.482.18-.935.23-1.433a14.9 14.9 0 0 0 .057-1.49V66.933c0-.621-.201-1.175-.63-1.605-.43-.43-.951-.63-1.548-.63h-.057c-.621 0-1.175.2-1.605.63-.43.43-.63.984-.63 1.605V85.73c0 2.985-1.051 5.511-3.152 7.565-2.054 2.101-4.547 3.152-7.508 3.152-2.96 0-5.52-1.051-7.622-3.152-2.077-2.102-3.094-4.628-3.094-7.565V66.933c0-.621-.258-1.175-.688-1.605-.43-.43-.893-.63-1.49-.63h-.115zm-298.496.088c-2.357-.068-4.724.352-7.106 1.26-4.764 1.818-8.17 5.08-10.258 9.743-2.088 4.664-2.219 9.334-.401 14.098 1.817 4.764 5.021 8.227 9.685 10.316a18.354 18.354 0 0 0 7.278 1.604h10.946c.597 0 1.118-.216 1.547-.63.43-.414.63-.915.63-1.49v-.173c0-.575-.2-1.076-.63-1.49-.43-.414-.95-.63-1.547-.63H44.718a13.74 13.74 0 0 1-5.501-1.204c-4.163-1.863-6.844-5.427-8.138-10.716 3.11 0 8.343-.03 15.76-.057 5.974-.02 10.775 0 14.441 0 .609-.018 1.127-.274 1.548-.688.43-.435.645-.938.63-1.547-.024-3.569-.999-6.85-2.923-9.857-1.97-3.08-4.61-5.375-7.966-6.877-2.332-1.044-4.692-1.595-7.049-1.662zm-1.49 4.585c2.245-.17 4.442.272 6.648 1.26 3.967 1.776 6.702 5.168 8.138 10.259l-27.737.113c.445-1.58.806-2.692 1.089-3.324 1.58-3.53 4.187-5.998 7.794-7.392 1.36-.52 2.722-.815 4.068-.917zm-33.643 0c-1.624 0-3.009.574-4.155 1.72-1.146 1.17-1.719 2.555-1.719 4.155 0 2.292 1.075 4.011 3.224 5.157.62.31 2.758.955 6.411 1.934 2.507.717 4.31 1.612 5.409 2.687 1.552 1.456 2.328 3.617 2.328 6.483 0 2.865-1.003 5.313-3.009 7.342-2.03 2.006-4.477 3.01-7.343 3.01H2.185c-.597 0-1.11-.216-1.54-.646A2.102 2.102 0 0 1 0 99.673v-.071c0-.621.215-1.147.645-1.576.43-.43.943-.645 1.54-.645h9.707c1.623 0 3.008-.573 4.154-1.72 1.147-1.146 1.72-2.53 1.72-4.154 0-2.22-1.087-3.857-3.26-4.907-.454-.215-2.579-.86-6.375-1.934-2.46-.74-4.263-1.648-5.409-2.723C1.17 80.391.394 78.16.394 75.245c0-2.865 1.003-5.3 3.009-7.306 2.03-2.03 4.477-3.045 7.342-3.045h8.885c.621 0 1.146.215 1.576.645.43.43.645.955.645 1.576v.072c0 .597-.215 1.11-.645 1.54-.43.43-.955.644-1.576.644z" style="line-height:125%;-inkscape-font-specification:Typo Round Light Demo Light" font-weight="300" fill="#2b1100" font-family="Typo Round Light Demo"/></g></svg>