<svg xmlns="http://www.w3.org/2000/svg" width="384" height="120"><g font-weight="400" font-size="40" font-family="OCRATTRegular" letter-spacing="0" word-spacing="0"><g style="line-height:125%;-inkscape-font-specification:OCRATTRegular"><path d="M227.622 0l9.97 9.97v18.61l-9.97 9.97m0 0V0" style="line-height:125%;-inkscape-font-specification:OCRATTRegular" fill="#026e00"/><path d="M227.622 0v38.55m0 0l-9.97-9.97V9.97l9.97-9.97" style="line-height:125%;-inkscape-font-specification:OCRATTRegular" fill="#04b000"/></g><g style="line-height:125%;-inkscape-font-specification:OCRATTRegular"><path d="M267.903 27.591l-13.62-3.649-16.116 9.305-3.65 13.62m0 0l33.386-19.276" style="line-height:125%;-inkscape-font-specification:OCRATTRegular" fill="#026e00"/><path d="M267.903 27.591l-33.386 19.275m0 0l13.62 3.65 16.117-9.305 3.649-13.62" style="line-height:125%;-inkscape-font-specification:OCRATTRegular" fill="#04b000"/></g><g style="line-height:125%;-inkscape-font-specification:OCRATTRegular"><path d="M187.34 27.591l13.62-3.649 16.116 9.305 3.65 13.62m0 0L187.34 27.59" style="line-height:125%;-inkscape-font-specification:OCRATTRegular" fill="#026e00"/><path d="M187.34 27.591l33.386 19.275m0 0l-13.62 3.65-16.116-9.305-3.65-13.62" style="line-height:125%;-inkscape-font-specification:OCRATTRegular" fill="#04b000"/></g></g><path style="line-height:125%;-inkscape-font-specification:'Typo Round Light Demo Light'" d="M144.198 64.677c.597 0 1.11.215 1.54.645.43.43.645.955.645 1.576v32.558c0 .597-.215 1.11-.644 1.54-.43.43-.944.645-1.54.645h-.072a2.143 2.143 0 01-1.576-.645 2.102 2.102 0 01-.645-1.54V66.898c0-.62.215-1.146.645-1.576.43-.43.955-.645 1.576-.645zm-.035-8.954c-.812 0-1.493-.275-2.042-.824-.55-.55-.824-1.23-.824-2.042 0-.788.275-1.456.824-2.005.55-.55 1.23-.824 2.042-.824a2.73 2.73 0 012.005.824c.574.573.86 1.241.86 2.005 0 .788-.286 1.469-.86 2.042a2.73 2.73 0 01-2.005.824zm141.371 9.063c-2.357-.068-4.725.352-7.107 1.26-4.764 1.818-8.17 5.08-10.258 9.743-2.088 4.664-2.219 9.334-.401 14.098 1.818 4.764 5.021 8.227 9.685 10.316a18.354 18.354 0 007.278 1.604h10.946a2.17 2.17 0 001.548-.63c.43-.414.63-.915.63-1.49v-.173c0-.575-.2-1.076-.63-1.49-.43-.414-.95-.63-1.548-.63h-10.946a13.74 13.74 0 01-5.501-1.204c-4.163-1.863-6.843-5.427-8.138-10.716 3.11 0 8.343-.03 15.76-.057 5.974-.02 10.776 0 14.441 0 .609-.018 1.127-.274 1.548-.688.43-.435.645-.938.63-1.547-.024-3.569-.998-6.85-2.923-9.857-1.97-3.08-4.61-5.375-7.965-6.877-2.332-1.044-4.692-1.595-7.05-1.662zm-1.49 4.585c2.244-.17 4.44.272 6.647 1.26 3.967 1.776 6.702 5.168 8.138 10.259l-27.737.113c.445-1.58.806-2.692 1.089-3.324 1.58-3.53 4.187-5.998 7.794-7.392 1.36-.52 2.722-.815 4.069-.917zm-82.14-4.585c-2.357-.068-4.725.352-7.107 1.26-4.764 1.818-8.17 5.08-10.258 9.743-2.088 4.664-2.218 9.334-.401 14.098 1.818 4.764 5.021 8.227 9.685 10.316a18.354 18.354 0 007.278 1.604h10.946a2.17 2.17 0 001.548-.63c.43-.414.63-.915.63-1.49v-.173c0-.575-.2-1.076-.63-1.49-.43-.414-.95-.63-1.548-.63h-10.946a13.74 13.74 0 01-5.501-1.204c-4.163-1.863-6.843-5.427-8.138-10.716 3.11 0 8.343-.03 15.76-.057 5.974-.02 10.776 0 14.441 0 .609-.018 1.127-.274 1.548-.688.43-.435.645-.938.63-1.547-.024-3.569-.998-6.85-2.923-9.857-1.97-3.08-4.61-5.375-7.965-6.877-2.332-1.044-4.692-1.595-7.05-1.662zm-1.49 4.585c2.244-.17 4.44.272 6.647 1.26 3.967 1.776 6.702 5.168 8.138 10.259l-27.737.113c.445-1.58.806-2.692 1.089-3.324 1.58-3.53 4.187-5.998 7.794-7.392 1.36-.52 2.722-.815 4.069-.917zM94.71 64.7c.621 0 1.147.215 1.576.645.406.43.61.955.61 1.576v.072c0 .62-.204 1.134-.61 1.54-.43.43-.955.645-1.576.645h-2.04c-2.531 0-4.692.895-6.483 2.686-1.767 1.79-2.663 3.952-2.687 6.483v21.132a2.1 2.1 0 01-.644 1.54c-.43.43-.944.645-1.54.645h-.108c-.597 0-1.11-.215-1.54-.644a2.102 2.102 0 01-.645-1.54V78.346c.048-3.797 1.373-7.02 3.976-9.67 2.65-2.651 5.874-3.977 9.67-3.977zm23.286 31.198c.34 0 .701-.49 1.086-1.469l.17-.43 11.367-27.937c.362-.908.996-1.362 1.9-1.362h.068c.747 0 1.324.323 1.731.967.407.67.464 1.362.17 2.078L121.865 98.87c-.77 1.862-2.059 2.793-3.869 2.793s-3.099-.93-3.868-2.793l-12.623-31.126c-.294-.716-.238-1.409.17-2.078.407-.644.983-.967 1.73-.967h.068c.905 0 1.538.454 1.9 1.362l11.368 27.937.17.43c.384.98.746 1.469 1.085 1.469zM170.69 64.7c1.91 0 3.772.299 5.587.896 1.026.31 1.54 1.003 1.54 2.077v.18c0 .74-.299 1.325-.896 1.755-.597.454-1.253.573-1.97.358a12.78 12.78 0 00-4.262-.716c-3.868 0-7.175 1.373-9.921 4.119-2.723 2.746-4.084 6.053-4.084 9.921 0 3.845 1.361 7.14 4.084 9.886 2.746 2.746 6.053 4.12 9.921 4.12 1.48 0 2.901-.216 4.262-.645.717-.24 1.373-.143 1.97.286.597.43.896 1.027.896 1.791 0 1.05-.514 1.743-1.54 2.077-1.815.573-3.678.86-5.588.86-5.11 0-9.468-1.803-13.073-5.408-3.606-3.606-5.409-7.964-5.409-13.074 0-5.11 1.803-9.468 5.409-13.074 3.605-3.605 7.963-5.408 13.073-5.408zm73.139 4.55c-3.868 0-7.175 1.372-9.922 4.118-2.722 2.746-4.083 6.054-4.083 9.922 0 3.844 1.361 7.14 4.083 9.886 2.747 2.746 6.054 4.119 9.922 4.119 3.892 0 7.187-1.373 9.886-4.12 2.746-2.745 4.119-6.04 4.119-9.885 0-3.868-1.373-7.176-4.12-9.922-2.698-2.746-5.993-4.119-9.885-4.119zm-16.19-26.57c.597 0 1.11.203 1.54.609.43.43.645.955.645 1.576v26.068c4.657-4.155 9.325-6.233 14.005-6.233 5.11 0 9.468 1.803 13.074 5.409 3.605 3.606 5.408 7.964 5.408 13.073 0 5.11-1.803 9.468-5.408 13.074-3.606 3.606-7.964 5.408-13.074 5.408-5.11 0-9.456-1.79-13.038-5.372-3.605-3.606-5.42-7.94-5.444-13.002V44.865a2.142 2.142 0 012.185-2.186zm97.926 22.02c.621 0 1.146.215 1.576.645.406.43.61.955.61 1.576v.072c0 .62-.204 1.134-.61 1.54-.43.43-.955.645-1.576.645h-2.041c-2.532 0-4.693.895-6.483 2.686-1.767 1.79-2.663 3.952-2.687 6.483v21.132c0 .597-.215 1.11-.644 1.54-.43.43-.944.645-1.54.645h-.108c-.597 0-1.11-.215-1.54-.644a2.102 2.102 0 01-.645-1.54V78.346c.048-3.797 1.373-7.02 3.976-9.67 2.65-2.651 5.874-3.977 9.67-3.977zm20.851 0c.621 0 1.146.215 1.576.645.406.43.61.955.61 1.576v.072c0 .62-.204 1.134-.61 1.54-.43.43-.955.645-1.576.645h-2.041c-2.532 0-4.693.895-6.483 2.686-1.767 1.79-2.663 3.952-2.687 6.483v21.132c0 .597-.215 1.11-.644 1.54-.43.43-.944.645-1.54.645h-.108c-.597 0-1.11-.215-1.54-.644a2.102 2.102 0 01-.645-1.54V78.346c.048-3.797 1.373-7.02 3.976-9.67 2.65-2.651 5.874-3.977 9.67-3.977zm9.221-.002c-.597 0-1.117.2-1.547.63-.43.43-.63.984-.63 1.605V85.73c0 4.203 1.451 7.78 4.412 10.717 2.961 2.96 6.572 4.413 10.774 4.413 3.32 0 6.863-1.39 10.66-4.184v8.195a12.05 12.05 0 01-.057 1.032c-.002.018.002.038 0 .057a10.468 10.468 0 01-.402 2.006 8.961 8.961 0 01-.343.974 9.778 9.778 0 01-.459.917c-.007.015.007.043 0 .057-.33.59-.745 1.123-1.203 1.662-.01.011.009.046 0 .057-.227.265-.487.493-.745.745-.245.242-.492.474-.745.688-.02.016-.037.04-.058.057-.113.094-.228.198-.343.287-.163.125-.35.23-.516.343-.228.154-.453.326-.688.459-.059.034-.113.082-.172.115-.143.077-.313.102-.458.171-.155.076-.301.163-.459.23-.29.124-.558.248-.86.343-.018.005-.04-.006-.057 0-.192.06-.376.124-.573.172a10.6 10.6 0 01-2.464.287H355.81c-.676 0-1.233.2-1.72.63-.486.43-.745.95-.745 1.548v.114c0 .597.26 1.118.745 1.548.487.43 1.044.63 1.72.63h12.894a15.005 15.005 0 002.464-.23v.058c.139-.024.264-.087.402-.115.239-.048.452-.111.687-.172.212-.055.422-.106.63-.171.134-.041.27-.07.402-.115.303-.105.62-.217.917-.344.157-.066.303-.156.458-.23.27-.127.538-.254.803-.4.168-.092.35-.187.515-.287.424-.255.851-.556 1.261-.86.624-.463 1.243-.97 1.834-1.547.77-.753 1.482-1.535 2.063-2.35.01-.012-.009-.043 0-.057a13.85 13.85 0 001.949-3.954c.141-.448.305-.912.4-1.375.005-.019-.003-.04 0-.057a13.8 13.8 0 00.23-1.433c.05-.496.057-.977.057-1.49V66.933c0-.621-.2-1.175-.63-1.605-.43-.43-.95-.63-1.548-.63h-.057c-.62 0-1.175.2-1.604.63-.43.43-.63.984-.63 1.605V85.73c0 2.985-1.051 5.511-3.153 7.565-2.053 2.101-4.546 3.152-7.507 3.152-2.961 0-5.52-1.051-7.622-3.152-2.078-2.102-3.095-4.628-3.095-7.565V66.933c0-.621-.258-1.175-.688-1.605-.43-.43-.893-.63-1.49-.63h-.114zm-298.495.088c-2.357-.068-4.724.352-7.106 1.26-4.765 1.818-8.17 5.08-10.258 9.743-2.089 4.664-2.22 9.334-.402 14.098 1.818 4.764 5.022 8.227 9.685 10.316a18.354 18.354 0 007.279 1.604h10.946c.597 0 1.117-.216 1.547-.63.43-.414.63-.915.63-1.49v-.173c0-.575-.2-1.076-.63-1.49-.43-.414-.95-.63-1.547-.63H56.34a13.74 13.74 0 01-5.502-1.204c-4.163-1.863-6.843-5.427-8.138-10.716 3.11 0 8.343-.03 15.76-.057 5.974-.02 10.776 0 14.442 0 .608-.018 1.127-.274 1.547-.688.43-.435.645-.938.63-1.547-.024-3.569-.998-6.85-2.922-9.857-1.97-3.08-4.61-5.375-7.966-6.877-2.332-1.044-4.692-1.595-7.049-1.662zm-1.49 4.585c2.245-.17 4.441.272 6.648 1.26 3.966 1.776 6.702 5.168 8.138 10.259l-27.738.113c.446-1.58.806-2.692 1.09-3.324 1.58-3.53 4.186-5.998 7.793-7.392 1.36-.52 2.722-.815 4.069-.917zM16.404 47.902c-3.007 0-5.577 1.067-7.71 3.2-2.132 2.132-3.199 4.702-3.199 7.709 0 3.718 1.682 6.548 5.045 8.49 1.285.737 4.77 1.927 10.457 3.567 4.292 1.285 7.382 2.775 9.268 4.47 2.68 2.433 4.02 5.946 4.02 10.54 0 4.483-1.586 8.297-4.758 11.441-3.144 3.144-6.944 4.716-11.4 4.716H2.501a2.407 2.407 0 01-1.764-.738A2.407 2.407 0 010 99.534v-.246c0-.684.246-1.271.738-1.764a2.407 2.407 0 011.764-.738h16.034c2.98 0 5.55-1.066 7.71-3.199 2.133-2.132 3.2-4.702 3.2-7.71 0-3.663-1.682-6.506-5.045-8.53-1.367-.82-4.84-2.105-10.417-3.854-4.347-1.422-7.45-2.967-9.309-4.635C1.995 66.453.656 63.103.656 58.811c0-4.484 1.572-8.298 4.716-11.442s6.958-4.716 11.442-4.716h11.032c.71 0 1.312.246 1.804.738.465.465.697 1.053.697 1.764v.246a2.48 2.48 0 01-.697 1.763 2.454 2.454 0 01-1.804.738z" font-weight="300" font-size="40" font-family="Typo Round Light Demo" letter-spacing="0" word-spacing="0" fill="#2b1100"/></svg>