<svg xmlns="http://www.w3.org/2000/svg" width="179.536" height="34"><path d="M79.881 10.069c.248 0 .462.09.64.268a.892.892 0 0 1 .269.656v13.543c0 .248-.09.462-.268.64a.874.874 0 0 1-.64.269h-.03a.892.892 0 0 1-.656-.269.874.874 0 0 1-.268-.64V10.993c0-.258.089-.477.268-.656a.892.892 0 0 1 .655-.268zm-.015-3.725c-.337 0-.62-.114-.849-.342a1.153 1.153 0 0 1-.343-.85c0-.327.115-.605.343-.834.229-.228.512-.343.85-.343.327 0 .605.115.834.343.238.238.357.517.357.834 0 .328-.119.611-.357.85a1.135 1.135 0 0 1-.835.342zm58.805 3.77c-.98-.028-1.965.147-2.956.525-1.982.756-3.398 2.112-4.267 4.052-.868 1.94-.923 3.883-.167 5.864.756 1.982 2.089 3.423 4.029 4.291a7.635 7.635 0 0 0 3.027.668h4.553a.9.9 0 0 0 .644-.263.827.827 0 0 0 .262-.62v-.071a.827.827 0 0 0-.262-.62.902.902 0 0 0-.644-.262h-4.553a5.715 5.715 0 0 1-2.288-.5c-1.732-.776-2.846-2.258-3.385-4.458 1.294 0 3.47-.013 6.555-.024 2.485-.008 4.483 0 6.008 0a.943.943 0 0 0 .643-.286.849.849 0 0 0 .262-.644 7.552 7.552 0 0 0-1.215-4.1 7.478 7.478 0 0 0-3.314-2.86 7.677 7.677 0 0 0-2.932-.692zm-.62 1.907c.934-.07 1.848.114 2.766.525 1.65.738 2.787 2.15 3.385 4.267l-11.538.047c.185-.657.335-1.12.453-1.383.657-1.468 1.742-2.495 3.242-3.075a6 6 0 0 1 1.692-.381zm-34.167-1.907c-.98-.028-1.965.147-2.956.525-1.981.756-3.398 2.112-4.267 4.052-.868 1.94-.923 3.883-.167 5.864.757 1.982 2.09 3.423 4.03 4.291a7.635 7.635 0 0 0 3.027.668h4.553c.248 0 .464-.09.643-.263a.827.827 0 0 0 .262-.62v-.071a.827.827 0 0 0-.262-.62.902.902 0 0 0-.643-.262h-4.553a5.715 5.715 0 0 1-2.289-.5c-1.731-.776-2.846-2.258-3.385-4.458 1.294 0 3.47-.013 6.556-.024 2.485-.008 4.482 0 6.007 0a.943.943 0 0 0 .643-.286.849.849 0 0 0 .263-.644 7.552 7.552 0 0 0-1.216-4.1 7.478 7.478 0 0 0-3.314-2.86 7.677 7.677 0 0 0-2.932-.692zm-.62 1.907c.934-.07 1.848.114 2.766.525 1.65.738 2.787 2.15 3.385 4.267l-11.538.047c.185-.657.335-1.12.453-1.383.658-1.468 1.742-2.495 3.242-3.075a6 6 0 0 1 1.693-.381zm-43.968-1.942c.258 0 .477.09.656.268a.92.92 0 0 1 .253.655v.03a.892.892 0 0 1-.909.909h-.85a3.675 3.675 0 0 0-2.696 1.117c-.735.745-1.107 1.644-1.117 2.697v8.79c0 .249-.09.462-.268.641a.874.874 0 0 1-.641.268h-.045a.874.874 0 0 1-.64-.268.874.874 0 0 1-.269-.64v-8.79c.02-1.58.571-2.921 1.654-4.024 1.103-1.102 2.444-1.653 4.023-1.653zm9.686 12.977c.141 0 .292-.204.452-.611l.07-.18 4.729-11.62c.15-.378.414-.566.79-.566h.028c.311 0 .55.134.72.402.17.278.193.566.07.864l-5.25 12.947c-.32.775-.856 1.162-1.609 1.162s-1.29-.387-1.609-1.162l-5.25-12.947a.912.912 0 0 1 .07-.864.805.805 0 0 1 .72-.402h.028c.376 0 .64.188.79.566l4.729 11.62.07.18c.16.407.31.61.452.61zM90.9 10.079c.795 0 1.57.124 2.324.372.428.13.641.417.641.864v.075a.853.853 0 0 1-.372.73.871.871 0 0 1-.82.149 5.316 5.316 0 0 0-1.773-.298c-1.609 0-2.984.571-4.127 1.713-1.132 1.143-1.698 2.518-1.698 4.127 0 1.6.566 2.97 1.698 4.113 1.143 1.142 2.518 1.713 4.127 1.713.616 0 1.207-.09 1.773-.268.298-.1.571-.06.82.119a.866.866 0 0 1 .372.745c0 .437-.213.725-.64.864a7.673 7.673 0 0 1-2.325.358c-2.125 0-3.938-.75-5.438-2.25-1.5-1.5-2.25-3.313-2.25-5.438 0-2.126.75-3.939 2.25-5.438 1.5-1.5 3.313-2.25 5.438-2.25zm30.424 1.891c-1.61 0-2.985.572-4.127 1.714-1.133 1.142-1.699 2.518-1.699 4.127 0 1.6.566 2.97 1.699 4.112 1.142 1.142 2.518 1.714 4.127 1.714 1.619 0 2.99-.572 4.112-1.714 1.142-1.142 1.713-2.513 1.713-4.112 0-1.609-.571-2.985-1.713-4.127-1.123-1.142-2.493-1.713-4.112-1.713zM114.589.92a.892.892 0 0 1 .909.909V12.67c1.937-1.728 3.879-2.592 5.826-2.592 2.125 0 3.938.75 5.438 2.25 1.5 1.5 2.25 3.312 2.25 5.437 0 2.126-.75 3.939-2.25 5.439s-3.313 2.25-5.438 2.25c-2.126 0-3.934-.746-5.424-2.236-1.5-1.5-2.254-3.302-2.264-5.408V1.828a.892.892 0 0 1 .909-.91zm40.734 9.159c.258 0 .477.09.655.268a.92.92 0 0 1 .254.655v.03a.892.892 0 0 1-.909.909h-.85a3.675 3.675 0 0 0-2.696 1.117c-.735.745-1.108 1.644-1.118 2.697v8.79a.873.873 0 0 1-.268.641.874.874 0 0 1-.64.268h-.045a.874.874 0 0 1-.64-.268.874.874 0 0 1-.269-.64v-8.79c.02-1.58.571-2.921 1.654-4.024 1.102-1.102 2.443-1.653 4.023-1.653zm8.673 0c.258 0 .477.09.655.268a.92.92 0 0 1 .254.655v.03a.892.892 0 0 1-.909.909h-.85a3.675 3.675 0 0 0-2.696 1.117c-.735.745-1.107 1.644-1.117 2.697v8.79c0 .249-.09.462-.269.641a.874.874 0 0 1-.64.268h-.045a.874.874 0 0 1-.64-.268.874.874 0 0 1-.269-.64v-8.79c.02-1.58.571-2.921 1.654-4.024 1.103-1.102 2.443-1.653 4.023-1.653zm3.836-.001a.875.875 0 0 0-.644.262.914.914 0 0 0-.262.667v7.82c0 1.747.604 3.235 1.835 4.457 1.232 1.232 2.734 1.835 4.482 1.835 1.38 0 2.854-.578 4.434-1.74v3.409c-.001.145-.011.29-.024.43v.023a4.355 4.355 0 0 1-.167.834 3.727 3.727 0 0 1-.143.406 4.067 4.067 0 0 1-.19.381c-.004.006.002.018 0 .024-.138.245-.31.467-.501.691-.004.005.004.02 0 .024-.095.11-.203.205-.31.31-.102.1-.204.197-.31.286-.009.007-.015.017-.024.024-.047.039-.095.082-.143.119-.067.052-.145.095-.214.143-.095.064-.189.135-.286.19-.025.015-.047.035-.072.048-.06.032-.13.043-.19.072-.065.031-.126.067-.191.095-.121.052-.233.103-.358.143-.008.002-.016-.002-.024 0-.08.025-.156.051-.238.072-.327.08-.672.117-1.025.119h-5.364c-.28 0-.513.083-.715.262-.202.179-.31.395-.31.644v.047c0 .249.108.465.31.644s.434.262.715.262h5.364c.35-.001.693-.038 1.025-.095v.024c.057-.01.11-.036.167-.048.1-.02.188-.047.286-.072.088-.023.175-.044.262-.071.055-.017.112-.029.167-.048a5.84 5.84 0 0 0 .381-.143c.066-.027.126-.065.191-.095.112-.053.224-.106.334-.167.07-.038.145-.078.214-.12.177-.105.354-.23.525-.357.26-.192.517-.403.763-.643.32-.314.616-.639.858-.978.004-.005-.004-.018 0-.024.37-.522.627-1.06.81-1.644.06-.187.127-.38.167-.572.002-.008-.001-.017 0-.024.04-.2.075-.39.095-.596.02-.207.024-.406.024-.62V11.007a.914.914 0 0 0-.262-.667.876.876 0 0 0-.644-.262h-.023a.914.914 0 0 0-.668.262.914.914 0 0 0-.262.667v7.82c0 1.24-.437 2.292-1.311 3.146-.854.874-1.891 1.31-3.123 1.31-1.232 0-2.296-.436-3.17-1.31-.865-.874-1.288-1.925-1.288-3.147v-7.819a.935.935 0 0 0-.286-.667.823.823 0 0 0-.62-.262h-.047zm-124.162.036c-.981-.028-1.966.147-2.957.525-1.982.756-3.398 2.112-4.267 4.052-.868 1.94-.923 3.883-.167 5.864.756 1.982 2.089 3.423 4.029 4.291a7.635 7.635 0 0 0 3.027.668h4.553a.9.9 0 0 0 .644-.263.827.827 0 0 0 .262-.62v-.071a.827.827 0 0 0-.262-.62.902.902 0 0 0-.644-.262h-4.553a5.715 5.715 0 0 1-2.288-.5c-1.732-.776-2.847-2.258-3.385-4.458 1.294 0 3.47-.013 6.555-.024 2.485-.008 4.483 0 6.008 0a.943.943 0 0 0 .643-.286.849.849 0 0 0 .262-.644 7.552 7.552 0 0 0-1.215-4.1 7.478 7.478 0 0 0-3.314-2.86 7.677 7.677 0 0 0-2.932-.692zm-.62 1.907c.933-.07 1.847.114 2.764.525 1.65.738 2.788 2.15 3.385 4.267l-11.537.047c.185-.657.335-1.12.453-1.383.657-1.468 1.742-2.495 3.242-3.075a6 6 0 0 1 1.692-.381zm-13.995.001c-.675 0-1.252.238-1.728.715a2.387 2.387 0 0 0-.715 1.728c0 .954.447 1.669 1.34 2.145.259.13 1.148.398 2.667.805 1.043.298 1.793.67 2.25 1.117.646.606.968 1.505.968 2.697 0 1.192-.417 2.21-1.251 3.054-.844.835-1.862 1.252-3.054 1.252h-3.889a.874.874 0 0 1-.64-.268.874.874 0 0 1-.269-.641v-.03c0-.258.09-.477.268-.655a.874.874 0 0 1 .641-.269h4.038c.675 0 1.251-.238 1.728-.715a2.355 2.355 0 0 0 .715-1.728c0-.924-.452-1.604-1.356-2.041-.188-.09-1.072-.358-2.652-.805-1.023-.308-1.773-.685-2.25-1.132-.645-.646-.968-1.574-.968-2.786 0-1.192.417-2.205 1.252-3.04.844-.844 1.862-1.266 3.054-1.266H32.9c.258 0 .476.09.655.268a.892.892 0 0 1 .268.656v.03a.871.871 0 0 1-.268.64.892.892 0 0 1-.655.269z" style="line-height:125%;-inkscape-font-specification:Typo Round Light Demo Light" font-size="40" font-weight="300" letter-spacing="0" word-spacing="0" font-family="Typo Round Light Demo" fill="#fff"/><g font-size="40" letter-spacing="0" word-spacing="0"><g style="line-height:125%;-inkscape-font-specification:OCRATTRegular" font-weight="400" font-family="OCRATTRegular"><path d="M8.793 0l8.793 8.793v16.414L8.793 34m0 0V0" style="line-height:125%;-inkscape-font-specification:OCRATTRegular" fill="#026e00"/><path d="M8.793 0v34m0 0L0 25.207V8.793L8.793 0" style="line-height:125%;-inkscape-font-specification:OCRATTRegular" fill="#04b000"/></g><path d="M10.137 12.256c-.533 0-.987.188-1.363.564a1.882 1.882 0 0 0-.564 1.363c0 .751.353 1.315 1.058 1.691.203.102.904.313 2.102.634.822.235 1.413.529 1.774.881.509.478.763 1.187.763 2.126 0 .94-.329 1.743-.986 2.408a3.301 3.301 0 0 1-2.408.987H7.447a.69.69 0 0 1-.505-.212.69.69 0 0 1-.212-.505v-.023a.7.7 0 0 1 .212-.517.69.69 0 0 1 .505-.211h3.183c.533 0 .987-.188 1.363-.564a1.86 1.86 0 0 0 .563-1.363c0-.728-.356-1.264-1.068-1.609-.15-.07-.846-.282-2.091-.634-.807-.243-1.398-.54-1.774-.893-.509-.509-.763-1.241-.763-2.196 0-.94.328-1.739.986-2.397a3.281 3.281 0 0 1 2.408-.998h2.914c.203 0 .376.07.517.211.14.141.211.314.211.517v.024a.69.69 0 0 1-.211.505.703.703 0 0 1-.517.211z" style="line-height:125%;-inkscape-font-specification:Typo Round Light Demo Light" font-weight="300" fill="none" font-family="Typo Round Light Demo"/></g></svg>