<svg xmlns="http://www.w3.org/2000/svg" width="111.923" height="120"><path d="M39.356 0a6.341 6.341 0 0 0-6.36 6.359c0 3.525 2.834 6.401 6.36 6.401a6.329 6.329 0 0 0 3.179-.859L66.982 38.97a6.266 6.266 0 0 0-.817 3.136c0 1.169.312 2.28.86 3.223L42.62 72.395a6.33 6.33 0 0 0-3.265-.902c-1.14 0-2.168.337-3.094.86l-24.36-27.025a6.451 6.451 0 0 0 .858-3.223c0-3.525-2.876-6.358-6.401-6.358A6.341 6.341 0 0 0 0 42.105c0 3.526 2.833 6.402 6.359 6.402a6.329 6.329 0 0 0 3.18-.86l24.36 26.982a6.269 6.269 0 0 0-.902 3.223c0 3.525 2.833 6.401 6.359 6.401a6.329 6.329 0 0 0 3.179-.859l24.447 27.068a6.266 6.266 0 0 0-.817 3.136c0 3.526 2.834 6.402 6.36 6.402 3.525 0 6.4-2.876 6.4-6.402 0-1.186-.337-2.27-.901-3.222l24.318-26.982c.94.546 2.013.86 3.179.86 3.525 0 6.402-2.877 6.402-6.402 0-3.526-2.877-6.359-6.402-6.359a6.341 6.341 0 0 0-6.359 6.359c0 1.168.311 2.28.86 3.222L75.66 108.1c-.93-.53-1.99-.86-3.137-.86-1.186 0-2.27.339-3.222.903L44.898 81.074c.546-.94.86-2.056.86-3.222 0-1.14-.337-2.168-.86-3.094l24.447-27.11c.94.546 2.013.859 3.18.859 3.525 0 6.4-2.876 6.4-6.402 0-1.186-.337-2.27-.901-3.222L102.342 11.9c.94.546 2.013.86 3.179.86 3.525 0 6.402-2.877 6.402-6.402 0-3.526-2.877-6.359-6.402-6.359a6.341 6.341 0 0 0-6.359 6.359c0 1.168.311 2.28.86 3.222L75.66 36.606c-.93-.53-1.99-.86-3.137-.86-1.186 0-2.27.339-3.222.903L44.898 9.58c.546-.94.86-2.056.86-3.222C45.757 2.833 42.88 0 39.355 0z" style="text-indent:0;text-align:start;line-height:125%;text-transform:none;block-progression:tb;marker:none;-inkscape-font-specification:OCRATTRegular" font-size="40" font-weight="400" letter-spacing="0" word-spacing="0" color="#000" fill="#7e7e7e" overflow="visible" font-family="OCRATTRegular"/></svg>